<svg width="512" height="512" viewBox="0 0 512 512" fill="none" xmlns="http://www.w3.org/2000/svg">
<path fill-rule="evenodd" clip-rule="evenodd" d="M256 477.98C378.596 477.98 477.98 378.596 477.98 256C477.98 133.404 378.596 34.0204 256 34.0204C133.404 34.0204 34.0204 133.404 34.0204 256C34.0204 378.596 133.404 477.98 256 477.98ZM256 500.898C391.254 500.898 500.898 391.254 500.898 256C500.898 120.746 391.254 11.1016 256 11.1016C120.746 11.1016 11.1016 120.746 11.1016 256C11.1016 391.254 120.746 500.898 256 500.898Z" fill="black"/>
<path fill-rule="evenodd" clip-rule="evenodd" d="M391.971 256C391.971 273.856 388.454 291.538 381.621 308.035C374.787 324.532 364.772 339.521 352.145 352.148C339.519 364.774 324.529 374.79 308.032 381.623C291.535 388.456 273.854 391.973 255.997 391.973C238.141 391.973 220.46 388.456 203.963 381.623C187.466 374.79 172.476 364.774 159.85 352.148C147.223 339.521 137.208 324.532 130.374 308.035C123.541 291.538 120.024 273.856 120.024 256H95.1211C95.1211 263.686 95.6719 271.345 96.762 278.919C98.6682 292.163 102.224 305.147 107.367 317.565C115.452 337.083 127.302 354.818 142.241 369.757C157.179 384.695 174.914 396.546 194.433 404.63C213.951 412.715 234.871 416.876 255.997 416.876C277.124 416.876 298.044 412.715 317.562 404.63C337.081 396.546 354.815 384.695 369.754 369.757C384.693 354.818 396.543 337.083 404.628 317.565C409.771 305.147 413.327 292.163 415.233 278.919C416.323 271.345 416.874 263.686 416.874 256H391.971Z" fill="black"/>
<path d="M199.667 191.446C199.667 205.167 188.544 216.289 174.823 216.289C161.102 216.289 149.979 205.167 149.979 191.446C149.979 177.725 161.102 166.602 174.823 166.602C188.544 166.602 199.667 177.725 199.667 191.446Z" fill="black"/>
<path d="M362.023 191.446C362.023 205.167 350.9 216.289 337.18 216.289C323.459 216.289 312.336 205.167 312.336 191.446C312.336 177.725 323.459 166.602 337.18 166.602C350.9 166.602 362.023 177.725 362.023 191.446Z" fill="black"/>
</svg>
