<svg width="512" height="512" viewBox="0 0 512 512" fill="none" xmlns="http://www.w3.org/2000/svg">
<path fill-rule="evenodd" clip-rule="evenodd" d="M89.2641 488.221C86.1539 497.464 96.7629 505.237 104.639 499.486L250.124 393.251C253.627 390.693 258.379 390.685 261.891 393.231L408.47 499.501C416.375 505.232 426.966 497.399 423.8 488.162L367.223 323.105C365.754 318.818 367.35 314.08 371.114 311.557L501.484 224.138C509.69 218.635 505.795 205.832 495.915 205.832H336.305C332.013 205.832 328.2 203.094 326.829 199.028L265.559 17.348C262.49 8.25015 249.611 8.28413 246.591 17.398L186.419 198.978C185.063 203.07 181.237 205.832 176.927 205.832H16.0849C6.20463 205.832 2.30948 218.635 10.5156 224.138L140.923 311.581C144.669 314.093 146.27 318.802 144.832 323.076L89.2641 488.221ZM295.861 328.045C297.193 328.045 298.366 328.923 298.74 330.201L311.792 374.732C312.167 376.01 313.339 376.888 314.671 376.888H333.645C335.658 376.888 337.099 374.945 336.516 373.018L278.823 182.524C278.44 181.259 277.274 180.394 275.952 180.394H236.053C234.731 180.394 233.564 181.259 233.181 182.524L175.489 373.018C174.905 374.945 176.347 376.888 178.36 376.888H197.333C198.665 376.888 199.838 376.01 200.212 374.732L213.264 330.201C213.639 328.923 214.811 328.045 216.143 328.045H295.861ZM253.843 192.115C254.125 191.157 255.004 190.499 256.002 190.499C257.001 190.499 257.88 191.157 258.161 192.115L290.523 302.305C291.087 304.226 289.647 306.15 287.644 306.15H224.36C222.358 306.15 220.918 304.226 221.482 302.305L253.843 192.115Z" fill="black"/>
</svg>
